<?xml version="1.0" encoding="utf-8"?>
<!-- Generator: Adobe Illustrator 26.0.3, SVG Export Plug-In . SVG Version: 6.00 Build 0)  -->
<svg version="1.1" id="Capa_1" xmlns="http://www.w3.org/2000/svg" xmlns:xlink="http://www.w3.org/1999/xlink" x="0px" y="0px"
	 viewBox="0 0 140.9 91.3" style="enable-background:new 0 0 140.9 91.3;" xml:space="preserve">
<style type="text/css">
	.st0{fill:#FFFFFF;}
</style>
<g>
	<path class="st0" d="M140.9,29.1L140.9,29.1C140.9,29.1,140.9,29.1,140.9,29.1c0-1.5-1.2-2.8-2.8-2.8c0,0-8,0-8,0
		c-0.9,0.1-1.6,0.5-2,1.2c0,0.1-0.1,0.1-0.1,0.2c0,0-0.1,0.1-0.1,0.1c-0.1,0.1-0.2,0.2-0.2,0.4c-0.6,0.9-1.3,1.6-2.1,2.3
		c-1.8,1.5-4,2.3-6.6,2.4c-1.2,0-2.3-0.1-3.4-0.5c-4.4-1.3-7.5-5.4-7.6-10.1c0,0,0,0,0-0.1c0,0,0-0.1,0-0.1c0-0.1,0-0.1,0-0.2
		c0-0.1,0-0.1,0-0.2c0,0,0-0.1,0-0.1c0,0,0-0.1,0-0.1c0.1-1.1,0.3-2.1,0.6-3.1c0,0,0,0,0,0c0.1-0.2,0.1-0.3,0.2-0.5c0,0,0,0,0-0.1
		c0.1-0.1,0.1-0.3,0.2-0.4c0,0,0-0.1,0.1-0.1c0.1-0.1,0.1-0.2,0.2-0.3c0-0.1,0.1-0.1,0.1-0.2c0.1-0.1,0.1-0.2,0.2-0.3
		c0-0.1,0.1-0.1,0.1-0.2c0.1-0.1,0.1-0.2,0.2-0.3c0-0.1,0.9-1.2,1-1.3c0,0,0,0,0,0c2-2.2,5-3.6,8.2-3.5c0,0,0.1,0,0.1,0
		c0.9,0,1.8,0.2,2.7,0.4c0,0,0,0,0.1,0c0.1,0,0.3,0.1,0.4,0.1c2.4,0.8,4.3,2.4,5.7,4.5c0.4,0.8,1.2,1.3,2.1,1.3h8.4
		c1.3,0,2.3-1,2.3-2.3V4.5c0-2.5-2-4.5-4.5-4.5h-34.9c-2.5,0-4.5,2-4.5,4.5v34.9c0,2.5,2,4.5,4.5,4.5h34.9c2.5,0,4.5-2,4.5-4.5V29.1
		C140.9,29.2,140.9,29.2,140.9,29.1C140.9,29.1,140.9,29.1,140.9,29.1"/>
	<path class="st0" d="M77.6,0L77.6,0C77.5,0,77.5,0,77.6,0c-1.5,0-2.8,1.2-2.8,2.8c0,0,0,8,0,8c0.1,0.9,0.5,1.6,1.2,2
		c0.1,0,0.1,0.1,0.2,0.1c0,0,0.1,0.1,0.1,0.1c0.1,0.1,0.2,0.2,0.4,0.2c0.9,0.6,1.6,1.3,2.3,2.1c1.5,1.8,2.3,4,2.4,6.6
		c0,1.2-0.1,2.3-0.5,3.4c-1.3,4.4-5.4,7.5-10.1,7.6c0,0,0,0-0.1,0c0,0-0.1,0-0.1,0c-0.1,0-0.1,0-0.2,0c-0.1,0-0.1,0-0.2,0
		c0,0-0.1,0-0.1,0c0,0-0.1,0-0.1,0c-1.1-0.1-2.1-0.3-3.1-0.6c0,0,0,0,0,0c-0.2-0.1-0.3-0.1-0.5-0.2c0,0,0,0-0.1,0
		c-0.1-0.1-0.3-0.1-0.4-0.2c0,0-0.1,0-0.1-0.1c-0.1-0.1-0.2-0.1-0.3-0.2c-0.1,0-0.1-0.1-0.2-0.1c-0.1-0.1-0.2-0.1-0.3-0.2
		c-0.1,0-0.1-0.1-0.2-0.1c-0.1-0.1-0.2-0.1-0.3-0.2c-0.1,0-1.2-0.9-1.3-1c0,0,0,0,0,0c-2.2-2-3.6-5-3.5-8.2c0,0,0-0.1,0-0.1
		c0-0.9,0.2-1.8,0.4-2.7c0,0,0,0,0-0.1c0-0.1,0.1-0.3,0.1-0.4c0.8-2.4,2.4-4.3,4.5-5.7c0.8-0.4,1.3-1.2,1.3-2.1V2.3
		C66,1,65,0,63.7,0H53c-2.5,0-4.5,2-4.5,4.5v34.9c0,2.5,2,4.5,4.5,4.5h34.9c2.5,0,4.5-2,4.5-4.5V4.5c0-2.5-2-4.5-4.5-4.5H77.6
		C77.6,0,77.6,0,77.6,0C77.6,0,77.6,0,77.6,0"/>
	<path class="st0" d="M44,29.1L44,29.1C44,29.1,44,29.1,44,29.1c0-1.5-1.2-2.8-2.8-2.8c0,0-8,0-8,0c-0.9,0.1-1.6,0.5-2,1.2
		c0,0.1-0.1,0.1-0.1,0.2c0,0-0.1,0.1-0.1,0.1C31,28,31,28.1,30.9,28.2c-0.6,0.9-1.3,1.6-2.1,2.3c-1.8,1.5-4,2.3-6.6,2.4
		c-1.2,0-2.3-0.1-3.4-0.5c-4.4-1.3-7.5-5.4-7.6-10.1c0,0,0,0,0-0.1c0,0,0-0.1,0-0.1c0-0.1,0-0.1,0-0.2c0-0.1,0-0.1,0-0.2
		c0,0,0-0.1,0-0.1c0,0,0-0.1,0-0.1c0.1-1.1,0.3-2.1,0.6-3.1c0,0,0,0,0,0c0.1-0.2,0.1-0.3,0.2-0.5c0,0,0,0,0-0.1
		c0.1-0.1,0.1-0.3,0.2-0.4c0,0,0-0.1,0.1-0.1c0.1-0.1,0.1-0.2,0.2-0.3c0-0.1,0.1-0.1,0.1-0.2c0.1-0.1,0.1-0.2,0.2-0.3
		c0-0.1,0.1-0.1,0.1-0.2c0.1-0.1,0.1-0.2,0.2-0.3c0-0.1,0.9-1.2,1-1.3c0,0,0,0,0,0c2-2.2,5-3.6,8.2-3.5c0,0,0.1,0,0.1,0
		c0.9,0,1.8,0.2,2.7,0.4c0,0,0,0,0.1,0c0.1,0,0.3,0.1,0.4,0.1c2.4,0.8,4.3,2.4,5.7,4.5c0.4,0.8,1.2,1.3,2.1,1.3h8.4
		c1.3,0,2.3-1,2.3-2.3V4.5C44,2,42,0,39.5,0H4.5C2,0,0,2,0,4.5v34.9C0,42,2,44,4.5,44h34.9c2.5,0,4.5-2,4.5-4.5V29.1
		C44,29.2,44,29.2,44,29.1C44,29.1,44,29.1,44,29.1"/>
	<path class="st0" d="M3.4,69.5c1,0.6,2.3,0.9,3.6,0.9c1.4,0,2.6-0.3,3.6-0.9c1-0.6,1.9-1.5,2.4-2.6c0.6-1.1,0.9-2.5,0.9-4.1V52.8
		h-1.7v10.1c0,1.3-0.2,2.4-0.7,3.3c-0.4,0.9-1.1,1.6-1.8,2C8.9,68.5,8,68.8,7,68.8c-1,0-1.9-0.2-2.7-0.7c-0.8-0.5-1.4-1.1-1.8-2
		c-0.5-0.9-0.7-2-0.7-3.3V52.8H0.1v10.1c0,1.6,0.3,3,0.9,4.1C1.5,68,2.3,68.9,3.4,69.5"/>
	<polygon class="st0" points="27.9,67 17.6,52.8 15.9,52.8 15.9,70.1 17.6,70.1 17.6,55.6 28.1,70.1 29.5,70.1 29.5,52.8 27.9,52.8 
			"/>
	<rect x="31.6" y="52.8" class="st0" width="1.7" height="17.4"/>
	<polygon class="st0" points="43.8,70.1 51,52.8 49.2,52.8 42.9,68 36.6,52.8 34.8,52.8 42,70.1 	"/>
	<polygon class="st0" points="63.9,68.5 53.9,68.5 53.9,62.2 60.2,62.2 60.2,60.5 53.9,60.5 53.9,54.4 63.8,54.4 63.8,52.8 
		52.2,52.8 52.2,70.1 63.9,70.1 	"/>
	<path class="st0" d="M67.3,62.7h5.2l3.6,7.5h1.9l-3.7-7.7c1.1-0.3,1.9-0.9,2.5-1.6c0.7-0.9,1-1.9,1-3c0-0.9-0.2-1.8-0.6-2.5
		c-0.4-0.7-1.1-1.3-1.9-1.8c-0.8-0.4-1.8-0.6-3-0.6h-6.5v17.4h1.7V62.7z M72.1,54.4c1.3,0,2.3,0.3,2.9,0.9c0.7,0.6,1,1.4,1,2.4
		c0,0.9-0.3,1.7-1,2.4c-0.7,0.6-1.6,1-2.9,1h-4.7v-6.6H72.1z"/>
	<path class="st0" d="M81.8,69.5c1.2,0.6,2.5,0.9,3.9,0.9c1.2,0,2.3-0.2,3.2-0.7c1-0.4,1.7-1,2.3-1.8c0.6-0.8,0.8-1.7,0.8-2.7
		c0-1.4-0.5-2.5-1.3-3.3c-0.9-0.7-2.3-1.3-4.2-1.6l-2-0.3c-1.3-0.2-2.3-0.6-2.8-1c-0.5-0.4-0.8-1-0.8-1.8c0-0.6,0.2-1.1,0.5-1.6
		c0.3-0.5,0.8-0.8,1.4-1.1c0.6-0.3,1.4-0.4,2.2-0.4c1.9,0,3.7,0.7,5.5,2l0.2,0.2l1-1.4l-0.2-0.2c-1-0.8-2.1-1.3-3.2-1.7
		c-1.1-0.4-2.3-0.6-3.4-0.6c-1.1,0-2.1,0.2-3,0.6c-0.9,0.4-1.6,1-2.1,1.7c-0.5,0.7-0.8,1.6-0.8,2.5c0,1.3,0.4,2.3,1.3,3
		c0.8,0.7,2.1,1.2,3.8,1.5l2,0.3c1.5,0.2,2.6,0.6,3.2,1.1c0.6,0.5,0.9,1.1,0.9,2c0,0.7-0.2,1.3-0.6,1.8c-0.4,0.5-0.9,1-1.6,1.3
		c-0.7,0.3-1.5,0.5-2.4,0.5c-1.1,0-2.1-0.2-3.1-0.7c-1-0.5-1.8-1.2-2.6-2.1l-0.2-0.2l-1,1.1L78.6,67l0,0.1
		C79.6,68.1,80.6,69,81.8,69.5"/>
	<rect x="93.8" y="52.8" class="st0" width="1.7" height="17.4"/>
	<path class="st0" d="M105.9,69.5c1.1-0.4,2.1-1,2.9-1.8c0.8-0.8,1.4-1.7,1.9-2.8c0.4-1.1,0.6-2.2,0.6-3.4c0-1.2-0.2-2.4-0.6-3.4
		c-0.4-1.1-1-2-1.9-2.8c-0.8-0.8-1.8-1.4-2.9-1.8c-1.1-0.4-2.3-0.7-3.7-0.7h-4.9v17.4h4.9C103.6,70.1,104.8,69.9,105.9,69.5
		 M99.1,68.5V54.4h3.3c1,0,2,0.2,2.8,0.5c0.9,0.4,1.6,0.8,2.3,1.5c0.6,0.6,1.2,1.4,1.5,2.2c0.4,0.9,0.5,1.8,0.5,2.8
		c0,1-0.2,2-0.5,2.8c-0.4,0.9-0.9,1.6-1.5,2.2c-0.6,0.6-1.4,1.1-2.3,1.5c-0.9,0.4-1.8,0.5-2.8,0.5H99.1z"/>
	<path class="st0" d="M111.7,70.1l2.3-5.7h7.8l2.3,5.7h1.8l-7.2-17.4h-1.8l-7.2,17.4H111.7z M114.7,62.9l3.3-8l3.3,8H114.7z"/>
	<path class="st0" d="M135.3,69.5c1.1-0.4,2.1-1,2.9-1.8c0.8-0.8,1.4-1.7,1.9-2.8c0.4-1.1,0.6-2.2,0.6-3.4c0-1.2-0.2-2.4-0.6-3.4
		c-0.4-1.1-1-2-1.9-2.8c-0.8-0.8-1.8-1.4-2.9-1.8c-1.1-0.4-2.3-0.7-3.7-0.7h-4.9v17.4h4.9C133,70.1,134.2,69.9,135.3,69.5
		 M134.6,54.9c0.9,0.4,1.6,0.8,2.3,1.5c0.6,0.6,1.2,1.4,1.5,2.2c0.4,0.9,0.5,1.8,0.5,2.8c0,1-0.2,2-0.5,2.8
		c-0.4,0.9-0.9,1.6-1.5,2.2c-0.6,0.6-1.4,1.1-2.3,1.5c-0.9,0.4-1.8,0.5-2.8,0.5h-3.3V54.4h3.3C132.8,54.4,133.8,54.6,134.6,54.9"/>
	<path class="st0" d="M12.6,76.1c-0.8-0.8-1.8-1.4-2.9-1.8c-1.1-0.4-2.3-0.7-3.7-0.7H0.2V91h5.9c1.3,0,2.6-0.2,3.7-0.7
		c1.1-0.4,2.1-1,2.9-1.8c0.8-0.8,1.4-1.7,1.9-2.8c0.4-1.1,0.6-2.2,0.6-3.4c0-1.2-0.2-2.4-0.6-3.4C14.1,77.8,13.4,76.9,12.6,76.1
		 M13.4,82.3c0,1-0.2,2-0.5,2.8c-0.4,0.9-0.9,1.6-1.5,2.2c-0.6,0.6-1.4,1.1-2.3,1.5c-0.9,0.4-1.8,0.5-2.8,0.5H1.9V75.3h4.3
		c1,0,2,0.2,2.8,0.5c0.9,0.4,1.6,0.8,2.3,1.5c0.6,0.6,1.2,1.4,1.5,2.2C13.2,80.4,13.4,81.3,13.4,82.3"/>
	<polygon class="st0" points="18.3,83 25.6,83 25.6,81.4 18.3,81.4 18.3,75.3 29.2,75.3 29.2,73.6 16.6,73.6 16.6,91 29.3,91 
		29.3,89.4 18.3,89.4 	"/>
	<polygon class="st0" points="36,73.6 34.3,73.6 34.3,91 46.5,91 46.5,89.4 36,89.4 	"/>
	<path class="st0" d="M55.3,73.6L48.1,91h1.8l2.3-5.7H60l2.3,5.7h1.8L57,73.6H55.3z M52.8,83.7l3.3-8l3.3,8H52.8z"/>
	<path class="st0" d="M80.8,87.3c-0.6,0.7-1.5,1.3-2.4,1.7c-1,0.4-2,0.6-3,0.6c-1,0-2-0.2-2.8-0.6c-0.9-0.4-1.6-0.9-2.3-1.6
		c-0.6-0.7-1.1-1.4-1.5-2.3c-0.4-0.9-0.5-1.8-0.5-2.9c0-1,0.2-2,0.5-2.9c0.4-0.9,0.9-1.7,1.5-2.3c0.6-0.7,1.4-1.2,2.3-1.6
		c0.9-0.4,1.8-0.6,2.8-0.6c1,0,2.1,0.2,3,0.6c1,0.4,1.8,1,2.4,1.7l0.2,0.3l1.1-1.3L81.9,76c-0.6-0.6-1.2-1.1-1.9-1.5
		c-0.7-0.4-1.5-0.7-2.2-0.9c-0.8-0.2-1.6-0.3-2.5-0.3c-1.2,0-2.4,0.2-3.5,0.7c-1.1,0.5-2,1.1-2.8,1.9c-0.8,0.8-1.4,1.8-1.9,2.8
		c-0.4,1.1-0.7,2.2-0.7,3.5c0,1.2,0.2,2.4,0.7,3.5c0.4,1.1,1.1,2,1.9,2.8c0.8,0.8,1.7,1.5,2.8,1.9c1.1,0.5,2.2,0.7,3.5,0.7
		c0.8,0,1.7-0.1,2.5-0.3c0.8-0.2,1.5-0.5,2.2-0.9c0.7-0.4,1.3-0.9,1.9-1.5l0.2-0.2L81,87.1L80.8,87.3z"/>
	<path class="st0" d="M97.5,76c-0.8-0.8-1.7-1.5-2.8-1.9c-1.1-0.5-2.2-0.7-3.4-0.7c-1.2,0-2.4,0.2-3.4,0.7c-1.1,0.5-2,1.1-2.8,1.9
		c-0.8,0.8-1.4,1.8-1.9,2.9c-0.4,1.1-0.7,2.3-0.7,3.5c0,1.2,0.2,2.4,0.7,3.5c0.4,1.1,1.1,2,1.9,2.9c0.8,0.8,1.7,1.5,2.8,1.9
		c1.1,0.5,2.2,0.7,3.4,0.7c1.2,0,2.4-0.2,3.4-0.7c1.1-0.5,2-1.1,2.8-1.9c0.8-0.8,1.4-1.8,1.9-2.9c0.4-1.1,0.7-2.3,0.7-3.5
		c0-1.2-0.2-2.4-0.7-3.5C99,77.7,98.3,76.8,97.5,76 M91.3,89.6c-1,0-1.9-0.2-2.8-0.6c-0.9-0.4-1.6-0.9-2.2-1.6
		c-0.6-0.7-1.1-1.4-1.5-2.3c-0.4-0.9-0.5-1.9-0.5-2.9c0-1,0.2-2,0.5-2.9c0.4-0.9,0.9-1.7,1.5-2.3c0.6-0.7,1.4-1.2,2.2-1.6
		c0.9-0.4,1.8-0.6,2.8-0.6c1,0,1.9,0.2,2.8,0.6c0.9,0.4,1.6,0.9,2.2,1.6c0.6,0.7,1.1,1.4,1.5,2.3c0.4,0.9,0.5,1.9,0.5,2.9
		c0,1-0.2,2-0.5,2.9c-0.4,0.9-0.9,1.7-1.5,2.3c-0.6,0.7-1.4,1.2-2.2,1.6C93.3,89.4,92.3,89.6,91.3,89.6"/>
	<path class="st0" d="M112.7,82.9c-0.9-0.7-2.3-1.3-4.2-1.6l-2-0.3c-1.3-0.2-2.3-0.6-2.8-1c-0.5-0.4-0.8-1-0.8-1.8
		c0-0.6,0.2-1.1,0.5-1.6c0.3-0.5,0.8-0.8,1.4-1.1c0.6-0.3,1.4-0.4,2.2-0.4c1.9,0,3.7,0.7,5.5,2l0.2,0.2l1-1.4l-0.2-0.2
		c-1-0.8-2.1-1.3-3.2-1.7c-1.1-0.4-2.3-0.6-3.4-0.6c-1.1,0-2.1,0.2-3,0.6c-0.9,0.4-1.6,1-2.1,1.7c-0.5,0.7-0.8,1.6-0.8,2.5
		c0,1.3,0.4,2.3,1.3,3c0.8,0.7,2.1,1.2,3.8,1.5l2,0.3c1.5,0.2,2.6,0.6,3.2,1.1c0.6,0.5,0.9,1.1,0.9,2c0,0.7-0.2,1.3-0.6,1.8
		c-0.4,0.5-0.9,1-1.6,1.3c-0.7,0.3-1.5,0.5-2.4,0.5c-1.1,0-2.1-0.2-3.1-0.7c-1-0.5-1.8-1.2-2.6-2.1l-0.2-0.2l-1.3,1.1l0.2,0.2
		c0.9,1.1,2,1.9,3.1,2.5c1.2,0.6,2.5,0.9,3.9,0.9c1.2,0,2.3-0.2,3.2-0.7c1-0.4,1.7-1,2.3-1.8c0.6-0.8,0.8-1.7,0.8-2.7
		C114,84.7,113.6,83.6,112.7,82.9"/>
	<polygon class="st0" points="128.9,73.6 114.8,73.6 114.8,75.3 121,75.3 121,91 122.7,91 122.7,75.3 128.9,75.3 	"/>
	<path class="st0" d="M133.6,73.6h-1.8L124.7,91h1.8l2.3-5.7h7.8l2.3,5.7h1.8L133.6,73.6z M129.4,83.7l3.3-8l3.3,8H129.4z"/>
</g>
</svg>
